<?xml version="1.0" encoding="UTF-8" standalone="no"?>
<svg
   xmlns:osb="http://www.openswatchbook.org/uri/2009/osb"
   xmlns:dc="http://purl.org/dc/elements/1.1/"
   xmlns:cc="http://creativecommons.org/ns#"
   xmlns:rdf="http://www.w3.org/1999/02/22-rdf-syntax-ns#"
   xmlns:svg="http://www.w3.org/2000/svg"
   xmlns="http://www.w3.org/2000/svg"
   xmlns:xlink="http://www.w3.org/1999/xlink"
   xmlns:sodipodi="http://sodipodi.sourceforge.net/DTD/sodipodi-0.dtd"
   xmlns:inkscape="http://www.inkscape.org/namespaces/inkscape"
   sodipodi:docname="logo_tiny.svg"
   inkscape:version="1.0 (4035a4fb49, 2020-05-01)"
   id="svg8"
   version="1.1"
   viewBox="0 0 132.29167 132.29167"
   height="500"
   width="500"
   inkscape:export-filename="C:\Users\dylan\Source\Repos\belowaverage-org\SuperADD\SuperADDAssets\16.png"
   inkscape:export-xdpi="4.7995281"
   inkscape:export-ydpi="4.7995281">
  <defs
     id="defs2">
    <linearGradient
       inkscape:collect="always"
       id="linearGradient883">
      <stop
         style="stop-color:#d400dc;stop-opacity:1"
         offset="0"
         id="stop879" />
      <stop
         style="stop-color:#0096cc;stop-opacity:1"
         offset="1"
         id="stop881" />
    </linearGradient>
    <linearGradient
       osb:paint="gradient"
       id="linearGradient858">
      <stop
         id="stop854"
         offset="0"
         style="stop-color:#000000;stop-opacity:1;" />
      <stop
         id="stop856"
         offset="1"
         style="stop-color:#000000;stop-opacity:0;" />
    </linearGradient>
    <linearGradient
       inkscape:collect="always"
       xlink:href="#linearGradient883"
       id="linearGradient885"
       x1="33.667122"
       y1="33.538944"
       x2="99.159081"
       y2="99.019981"
       gradientUnits="userSpaceOnUse" />
  </defs>
  <sodipodi:namedview
     inkscape:snap-nodes="true"
     inkscape:window-maximized="1"
     inkscape:window-y="-8"
     inkscape:window-x="-8"
     inkscape:window-height="1027"
     inkscape:window-width="1920"
     inkscape:snap-grids="true"
     inkscape:pagecheckerboard="true"
     width="49px"
     units="px"
     showgrid="false"
     inkscape:document-rotation="0"
     inkscape:current-layer="layer2"
     inkscape:document-units="mm"
     inkscape:cy="153.26514"
     inkscape:cx="121.79506"
     inkscape:zoom="0.69999999"
     inkscape:pageshadow="2"
     inkscape:pageopacity="0.0"
     borderopacity="1.0"
     bordercolor="#666666"
     pagecolor="#ffffff"
     id="base" />
  <metadata
     id="metadata5">
    <rdf:RDF>
      <cc:Work
         rdf:about="">
        <dc:format>image/svg+xml</dc:format>
        <dc:type
           rdf:resource="http://purl.org/dc/dcmitype/StillImage" />
        <dc:title />
      </cc:Work>
    </rdf:RDF>
  </metadata>
  <g
     style="display:inline"
     inkscape:label="Base Icon"
     id="layer2"
     inkscape:groupmode="layer"
     sodipodi:insensitive="true">
    <path
       d="m 93.166016,23.84375 c -18.839694,0.01796 -37.681215,-0.04437 -56.519532,0.138672 -7.396258,0.812467 -13.373869,8.076191 -12.789062,15.486328 0.05974,18.849311 -0.154863,37.702459 0.197266,56.548828 0.995643,7.305512 8.26608,13.046362 15.591796,12.439452 18.682794,-0.0343 37.367388,0.0353 56.048828,-0.15234 7.470938,-0.86315 13.445598,-8.29361 12.730468,-15.771487 -0.007,-18.698438 0.0914,-37.398758 -0.13672,-56.095703 -0.94701,-7.181495 -7.88491,-12.973341 -15.123044,-12.59375 z"
       inkscape:label="Outline"
       style="fill:#fefefe;fill-opacity:1;stroke-width:3.93541"
       id="path887" />
    <path
       sodipodi:insensitive="true"
       id="path846"
       d="m 38.598023,30.727154 c -4.368342,0 -7.870868,3.502511 -7.870868,7.870809 v 55.095729 a 7.8708183,7.8708183 0 0 0 7.870868,7.870818 h 55.095776 a 7.8708183,7.8708183 0 0 0 7.870711,-7.870818 V 38.597963 c 0,-4.368298 -3.541783,-7.870809 -7.870711,-7.870809 H 38.598023 m 27.547813,7.870809 c 12.160526,0 22.904155,8.028233 26.367266,19.677049 h -10.62553 a 3.935409,3.935409 0 0 0 -3.935509,3.935404 v 7.870823 a 3.935409,3.935409 0 0 0 3.935509,3.935405 H 92.552517 C 89.049991,85.704815 78.306362,93.693692 66.145836,93.693692 A 27.547862,27.547862 0 0 1 38.598023,66.145835 27.547862,27.547862 0 0 1 66.145836,38.597963 m 0,19.677049 a 7.8708183,7.8708183 0 0 0 -7.870718,7.870823 7.8708183,7.8708183 0 0 0 7.870718,7.870809 7.8708183,7.8708183 0 0 0 7.870868,-7.870809 7.8708183,7.8708183 0 0 0 -7.870868,-7.870823 z"
       style="fill:url(#linearGradient885);fill-opacity:1;stroke-width:3.93541"
       inkscape:label="Icon" />
  </g>
</svg>
